HIERARCHY
ROOT Hips
{
	OFFSET 0.000000 121.760803 0.000000
	CHANNELS 6 Xposition Yposition Zposition Xrotation Yrotation Zrotation 
	JOINT Spine
	{
		OFFSET 0.072000 7.257294 -0.789700
		CHANNELS 3 Xrotation Yrotation Zrotation
		JOINT Spine1
		{
			OFFSET 0.000000 12.508769 -0.658067
			CHANNELS 3 Xrotation Yrotation Zrotation
			JOINT Spine1_split
			{
				OFFSET 0.000000 12.508769 -0.658067
				CHANNELS 3 Xrotation Yrotation Zrotation
				JOINT Spine2
				{
					OFFSET 0.000000 12.508769 -0.658067
					CHANNELS 3 Xrotation Yrotation Zrotation
					JOINT Neck
					{
						OFFSET 0.000000 14.033295 7.520400
						CHANNELS 3 Xrotation Yrotation Zrotation
						JOINT Head
						{
							OFFSET 0.000000 8.198502 5.703100
							CHANNELS 3 Xrotation Yrotation Zrotation
							JOINT HeadTop_End
							{
								OFFSET 0.000000 17.760803 13.332701
								CHANNELS 3 Xrotation Yrotation Zrotation
								End Site
								{
									OFFSET 0.000000 0.000000 0.000000
								}
							}
						}
					}
					JOINT LeftShoulder
					{
						OFFSET 6.292450 5.785301 -0.669000
						CHANNELS 3 Xrotation Yrotation Zrotation
						JOINT LeftShoulder_split
						{
							OFFSET 6.292450 5.785301 -0.669000
							CHANNELS 3 Xrotation Yrotation Zrotation
							JOINT LeftArm
							{
								OFFSET 13.907140 -6.093903 1.965100
								CHANNELS 3 Xrotation Yrotation Zrotation
								JOINT LeftForeArm
								{
									OFFSET 34.140198 0.000000 0.000000
									CHANNELS 3 Xrotation Yrotation Zrotation
									JOINT LeftHand
									{
										OFFSET 40.960209 0.000000 0.000000
										CHANNELS 3 Xrotation Yrotation Zrotation
										JOINT LeftHandThumb1
										{
											OFFSET 10.006996 -7.170425 9.573125
											CHANNELS 3 Xrotation Yrotation Zrotation
											JOINT LeftHandThumb2
											{
												OFFSET 1.835007 -1.059448 1.059443
												CHANNELS 3 Xrotation Yrotation Zrotation
												JOINT LeftHandThumb3
												{
													OFFSET 2.112267 -1.219513 1.219518
													CHANNELS 3 Xrotation Yrotation Zrotation
													JOINT LeftHandThumb4
													{
														OFFSET 4.843811 -2.796570 2.796576
														CHANNELS 3 Xrotation Yrotation Zrotation
														End Site
														{
															OFFSET 0.000000 0.000000 0.000000
														}
													}
												}
											}
										}
										JOINT LeftHandIndex1
										{
											OFFSET 18.389847 -0.922348 4.596882
											CHANNELS 3 Xrotation Yrotation Zrotation
											JOINT LeftHandIndex2
											{
												OFFSET 4.711273 0.000000 0.000000
												CHANNELS 3 Xrotation Yrotation Zrotation
												JOINT LeftHandIndex3
												{
													OFFSET 2.886131 0.000000 0.000000
													CHANNELS 3 Xrotation Yrotation Zrotation
													JOINT LeftHandIndex4
													{
														OFFSET 6.145912 0.000000 0.000000
														CHANNELS 3 Xrotation Yrotation Zrotation
														End Site
														{
															OFFSET 0.000000 0.000000 0.000000
														}
													}
												}
											}
										}
										JOINT LeftHandMiddle1
										{
											OFFSET 18.013008 0.000000 0.000000
											CHANNELS 3 Xrotation Yrotation Zrotation
											JOINT LeftHandMiddle2
											{
												OFFSET 4.946693 0.000000 0.000000
												CHANNELS 3 Xrotation Yrotation Zrotation
												JOINT LeftHandMiddle3
												{
													OFFSET 3.342232 0.000000 0.000000
													CHANNELS 3 Xrotation Yrotation Zrotation
													JOINT LeftHandMiddle4
													{
														OFFSET 4.461754 0.000000 0.000000
														CHANNELS 3 Xrotation Yrotation Zrotation
														End Site
														{
															OFFSET 0.000000 0.000000 0.000000
														}
													}
												}
											}
										}
										JOINT LeftHandRing1
										{
											OFFSET 15.849892 -0.102921 -4.126150
											CHANNELS 3 Xrotation Yrotation Zrotation
											JOINT LeftHandRing2
											{
												OFFSET 3.527054 0.000000 0.000000
												CHANNELS 3 Xrotation Yrotation Zrotation
												JOINT LeftHandRing3
												{
													OFFSET 2.961098 0.000000 0.000000
													CHANNELS 3 Xrotation Yrotation Zrotation
													JOINT LeftHandRing4
													{
														OFFSET 4.927200 0.000000 0.000000
														CHANNELS 3 Xrotation Yrotation Zrotation
														End Site
														{
															OFFSET 0.000000 0.000000 0.000000
														}
													}
												}
											}
										}
										JOINT LeftHandPinky1
										{
											OFFSET 12.791824 -0.832031 -6.799156
											CHANNELS 3 Xrotation Yrotation Zrotation
											JOINT LeftHandPinky2
											{
												OFFSET 3.327133 0.000000 0.000000
												CHANNELS 3 Xrotation Yrotation Zrotation
												JOINT LeftHandPinky3
												{
													OFFSET 3.014900 0.000000 0.000000
													CHANNELS 3 Xrotation Yrotation Zrotation
													JOINT LeftHandPinky4
													{
														OFFSET 5.847786 0.000000 0.000000
														CHANNELS 3 Xrotation Yrotation Zrotation
														End Site
														{
															OFFSET 0.000000 0.000000 0.000000
														}
													}
												}
											}
										}
									}
								}
							}
						}
					}
					JOINT RightShoulder
					{
						OFFSET -6.292450 5.785301 -0.669000
						CHANNELS 3 Xrotation Yrotation Zrotation
						JOINT RightShoulder_split
						{
							OFFSET -6.292450 5.785301 -0.669000
							CHANNELS 3 Xrotation Yrotation Zrotation
							JOINT RightArm
							{
								OFFSET -13.907140 -6.093903 1.965100
								CHANNELS 3 Xrotation Yrotation Zrotation
								JOINT RightForeArm
								{
									OFFSET -34.140198 0.000000 0.000000
									CHANNELS 3 Xrotation Yrotation Zrotation
									JOINT RightHand
									{
										OFFSET -40.960209 0.000000 0.000000
										CHANNELS 3 Xrotation Yrotation Zrotation
										JOINT RightHandThumb1
										{
											OFFSET -10.007050 -7.170456 9.573117
											CHANNELS 3 Xrotation Yrotation Zrotation
											JOINT RightHandThumb2
											{
												OFFSET -1.835007 -1.059448 1.059443
												CHANNELS 3 Xrotation Yrotation Zrotation
												JOINT RightHandThumb3
												{
													OFFSET -2.112267 -1.219513 1.219518
													CHANNELS 3 Xrotation Yrotation Zrotation
													JOINT RightHandThumb4
													{
														OFFSET -4.843834 -2.796585 2.796590
														CHANNELS 3 Xrotation Yrotation Zrotation
														End Site
														{
															OFFSET 0.000000 0.000000 0.000000
														}
													}
												}
											}
										}
										JOINT RightHandIndex1
										{
											OFFSET -18.389870 -0.922424 4.596786
											CHANNELS 3 Xrotation Yrotation Zrotation
											JOINT RightHandIndex2
											{
												OFFSET -4.711273 0.000000 0.000000
												CHANNELS 3 Xrotation Yrotation Zrotation
												JOINT RightHandIndex3
												{
													OFFSET -2.886131 0.000000 0.000000
													CHANNELS 3 Xrotation Yrotation Zrotation
													JOINT RightHandIndex4
													{
														OFFSET -6.145920 0.000000 0.000000
														CHANNELS 3 Xrotation Yrotation Zrotation
														End Site
														{
															OFFSET 0.000000 0.000000 0.000000
														}
													}
												}
											}
										}
										JOINT RightHandMiddle1
										{
											OFFSET -18.013008 0.000000 0.000000
											CHANNELS 3 Xrotation Yrotation Zrotation
											JOINT RightHandMiddle2
											{
												OFFSET -4.946693 0.000000 0.000000
												CHANNELS 3 Xrotation Yrotation Zrotation
												JOINT RightHandMiddle3
												{
													OFFSET -3.342232 0.000000 0.000000
													CHANNELS 3 Xrotation Yrotation Zrotation
													JOINT RightHandMiddle4
													{
														OFFSET -4.461754 0.000000 0.000000
														CHANNELS 3 Xrotation Yrotation Zrotation
														End Site
														{
															OFFSET 0.000000 0.000000 0.000000
														}
													}
												}
											}
										}
										JOINT RightHandRing1
										{
											OFFSET -15.849876 -0.102936 -4.126237
											CHANNELS 3 Xrotation Yrotation Zrotation
											JOINT RightHandRing2
											{
												OFFSET -3.527054 0.000000 0.000000
												CHANNELS 3 Xrotation Yrotation Zrotation
												JOINT RightHandRing3
												{
													OFFSET -2.961098 0.000000 0.000000
													CHANNELS 3 Xrotation Yrotation Zrotation
													JOINT RightHandRing4
													{
														OFFSET -4.927200 0.000000 0.000000
														CHANNELS 3 Xrotation Yrotation Zrotation
														End Site
														{
															OFFSET 0.000000 0.000000 0.000000
														}
													}
												}
											}
										}
										JOINT RightHandPinky1
										{
											OFFSET -12.791786 -0.832077 -6.799222
											CHANNELS 3 Xrotation Yrotation Zrotation
											JOINT RightHandPinky2
											{
												OFFSET -3.327133 0.000000 0.000000
												CHANNELS 3 Xrotation Yrotation Zrotation
												JOINT RightHandPinky3
												{
													OFFSET -3.014900 0.000000 0.000000
													CHANNELS 3 Xrotation Yrotation Zrotation
													JOINT RightHandPinky4
													{
														OFFSET -5.847786 0.000000 0.000000
														CHANNELS 3 Xrotation Yrotation Zrotation
														End Site
														{
															OFFSET 0.000000 0.000000 0.000000
														}
													}
												}
											}
										}
									}
								}
							}
						}
					}
				}
			}
		}
	}
	JOINT LeftUpLeg
	{
		OFFSET 13.026900 -6.336304 -1.092800
		CHANNELS 3 Xrotation Yrotation Zrotation
		JOINT LeftLeg
		{
			OFFSET 0.524474 -46.096886 9.782700
			CHANNELS 3 Xrotation Yrotation Zrotation
			JOINT LeftFoot
			{
				OFFSET -0.524474 -53.427422 -12.948200
				CHANNELS 3 Xrotation Yrotation Zrotation
				JOINT LeftToeBase
				{
					OFFSET 0.192200 -14.009700 16.364100
					CHANNELS 3 Xrotation Yrotation Zrotation
					JOINT LeftToe_End
					{
						OFFSET -1.784700 -0.561700 9.474800
						CHANNELS 3 Xrotation Yrotation Zrotation
						End Site
						{
							OFFSET 0.000000 0.000000 0.000000
						}
					}
				}
			}
		}
	}
	JOINT RightUpLeg
	{
		OFFSET -12.883000 -6.336304 -1.092800
		CHANNELS 3 Xrotation Yrotation Zrotation
		JOINT RightLeg
		{
			OFFSET -0.524587 -46.096825 9.782800
			CHANNELS 3 Xrotation Yrotation Zrotation
			JOINT RightFoot
			{
				OFFSET 0.524587 -53.427383 -12.948300
				CHANNELS 3 Xrotation Yrotation Zrotation
				JOINT RightToeBase
				{
					OFFSET -0.192200 -14.009700 16.364100
					CHANNELS 3 Xrotation Yrotation Zrotation
					JOINT RightToe_End
					{
						OFFSET 1.784700 -0.561700 9.474800
						CHANNELS 3 Xrotation Yrotation Zrotation
						End Site
						{
							OFFSET 0.000000 0.000000 0.000000
						}
					}
				}
			}
		}
	}
}
MOTION
Frames: 5
Frame Time: 0.016667
-0.089981 94.466248 -0.176950 -5.289805 -45.290476 -0.064804 9.459033 7.380315 -1.672888 2.187718 0.989896 -0.915630 0.000000 0.000000 0.000000 2.202829 0.982774 -0.894153 0.084651 13.220547 4.538681 8.920924 20.138135 -4.130234 0.000001 -0.000000 -0.000000 1.117180 3.546354 -8.633312 0.000000 0.000000 0.000000 -53.487010 4.935513 -51.503011 -0.000057 -106.358067 -0.000066 1.988610 -7.706141 -15.869248 -6.141214 -11.690806 -6.761687 9.914126 42.595525 3.409870 -0.422808 8.108083 27.509089 0.000001 -0.000000 0.000001 0.255315 3.378217 -45.814331 5.654097 5.847750 -88.067455 2.162134 4.544817 -50.866359 0.000000 0.000000 -0.000000 -0.461471 3.841597 -39.722679 6.450756 5.820353 -95.892878 2.182890 4.561562 -51.127723 -0.000001 0.000002 0.000001 0.469719 4.966823 -39.799447 8.181036 5.368625 -113.502984 3.200493 5.218134 -63.022968 -0.000001 0.000001 0.000001 -3.762420 9.063703 -45.253828 5.342531 5.829012 -85.005331 8.716848 5.103327 -119.369167 0.000000 0.000000 0.000000 3.036128 13.027193 -5.371408 0.000000 0.000000 0.000000 -48.713722 27.172827 83.457071 0.000126 105.988287 -0.000109 -8.345374 17.548086 8.775681 -7.341084 13.749667 7.412325 9.855744 -44.489113 -3.903278 -0.115770 -14.513085 -28.973854 -0.000001 0.000003 -0.000001 -0.124374 -2.384786 45.108878 4.500599 -4.654540 88.071171 1.723228 -3.618374 50.920112 -0.000002 0.000002 -0.000000 -0.761619 -2.932908 39.031078 5.133887 -4.632756 95.881649 1.739746 -3.631708 51.181360 0.000001 -0.000004 0.000001 0.154760 -4.068813 39.122661 6.509726 -4.273601 113.462884 2.549586 -4.153926 63.067337 -0.000002 0.000001 0.000000 -4.198875 -8.025513 44.637783 4.252908 -4.639630 85.014805 6.935977 -4.062634 119.322285 -0.000001 -0.000000 0.000000 -35.095028 6.482918 17.943452 57.627262 -6.303549 4.336307 -19.842709 -8.003844 -15.604836 -1.594034 0.000007 -0.000002 -0.000000 -0.000002 -0.000000 -25.791173 -8.563837 -30.188251 56.911168 -8.362431 -7.381528 -21.920254 -6.263639 23.241228 -0.012991 0.000016 0.000002 -0.000000 0.000001 0.000001 
-0.124576 94.257538 -0.467398 -5.394915 -45.556727 -0.142075 9.472129 7.473315 -1.526487 2.190248 1.012037 -0.889779 0.000000 0.000000 0.000000 2.204673 1.005820 -0.868760 0.085770 13.245577 4.386414 8.800628 20.230044 -4.209238 0.000001 -0.000000 0.000001 1.115725 3.626832 -8.693362 0.000000 0.000000 0.000000 -53.153663 4.985185 -51.684342 0.000049 -106.535242 0.000029 2.135041 -7.826418 -15.735540 -6.141214 -11.690806 -6.761687 9.914125 42.595525 3.409873 -0.422810 8.108082 27.509087 0.000002 0.000002 -0.000000 0.255313 3.378219 -45.814327 5.654099 5.847752 -88.067448 2.162134 4.544816 -50.866359 0.000001 0.000002 -0.000004 -0.461474 3.841596 -39.722679 6.450756 5.820353 -95.892871 2.182889 4.561564 -51.127723 0.000000 -0.000002 0.000001 0.469717 4.966823 -39.799447 8.181033 5.368626 -113.502984 3.200490 5.218131 -63.022968 -0.000000 -0.000003 0.000003 -3.762422 9.063699 -45.253828 5.342531 5.829011 -85.005331 8.716848 5.103326 -119.369167 -0.000001 0.000001 0.000001 3.033762 13.290776 -5.488889 0.000000 0.000000 0.000000 -48.445572 26.967617 82.836466 0.000009 106.217255 -0.000008 -8.837569 17.355393 8.303471 -7.341084 13.749669 7.412329 9.855750 -44.489113 -3.903277 -0.115773 -14.513081 -28.973854 0.000001 -0.000005 0.000004 -0.124373 -2.384784 45.108874 4.500599 -4.654537 88.071171 1.723226 -3.618377 50.920109 -0.000000 -0.000001 -0.000001 -0.761619 -2.932905 39.031075 5.133888 -4.632752 95.881649 1.739744 -3.631707 51.181363 0.000000 -0.000002 0.000005 0.154760 -4.068815 39.122661 6.509727 -4.273600 113.462884 2.549586 -4.153920 63.067337 -0.000002 -0.000001 0.000000 -4.198875 -8.025510 44.637783 4.252910 -4.639628 85.014805 6.935976 -4.062635 119.322285 0.000000 0.000000 0.000001 -35.600910 6.171440 18.063602 58.261172 -6.183056 4.436770 -18.848371 -7.922827 -15.743161 -2.343548 -0.000009 0.000047 0.000000 0.000000 -0.000000 -26.216337 -8.537712 -30.116821 57.335401 -7.997886 -7.514604 -22.108422 -6.267966 23.318239 0.000794 0.000025 0.002992 -0.000000 -0.000000 -0.000000 
-0.122601 94.031395 -0.716974 -5.526867 -45.846996 -0.252623 9.504787 7.539042 -1.366670 2.197574 1.027102 -0.862103 0.000000 0.000000 0.000000 2.211432 1.021843 -0.841508 0.080985 13.269762 4.242638 8.681404 20.313042 -4.292204 0.000001 0.000000 0.000000 1.116595 3.696290 -8.750944 0.000000 0.000000 0.000000 -52.843022 5.031861 -51.853451 0.000198 -106.672392 0.000185 2.300290 -7.951175 -15.637932 -6.141214 -11.690807 -6.761681 9.914136 42.595529 3.409870 -0.422806 8.108090 27.509089 0.000001 0.000001 -0.000001 0.255313 3.378220 -45.814327 5.654095 5.847751 -88.067448 2.162135 4.544816 -50.866359 -0.000001 -0.000001 -0.000005 -0.461473 3.841596 -39.722679 6.450755 5.820350 -95.892871 2.182890 4.561561 -51.127719 -0.000000 0.000001 -0.000001 0.469716 4.966824 -39.799441 8.181033 5.368626 -113.502977 3.200493 5.218137 -63.022968 -0.000001 -0.000000 0.000001 -3.762423 9.063701 -45.253825 5.342533 5.829012 -85.005331 8.716848 5.103330 -119.369167 -0.000001 -0.000000 -0.000000 3.025577 13.532521 -5.623950 0.000000 0.000000 0.000000 -48.207752 26.760184 82.252983 -0.000005 106.474269 0.000001 -9.184469 17.196912 7.719663 -7.341085 13.749669 7.412324 9.855742 -44.489120 -3.903279 -0.115768 -14.513085 -28.973854 -0.000002 -0.000000 0.000001 -0.124374 -2.384784 45.108874 4.500596 -4.654537 88.071171 1.723224 -3.618377 50.920112 -0.000001 0.000002 -0.000001 -0.761619 -2.932905 39.031075 5.133885 -4.632754 95.881649 1.739743 -3.631705 51.181360 -0.000001 0.000000 0.000002 0.154760 -4.068814 39.122658 6.509727 -4.273602 113.462884 2.549586 -4.153921 63.067337 -0.000000 -0.000000 0.000000 -4.198875 -8.025512 44.637783 4.252908 -4.639627 85.014805 6.935973 -4.062632 119.322285 0.000001 -0.000000 -0.000000 -36.101306 5.829879 18.198981 58.968397 -5.992650 4.490788 -17.844021 -7.934379 -15.867634 -3.407999 -0.000007 0.000248 -0.000000 0.000002 -0.000000 -26.692021 -8.541926 -30.050128 57.796009 -7.601960 -7.694889 -22.296488 -6.255314 23.272758 -0.027971 -0.000031 0.000002 0.000000 0.000000 0.000000 
-0.087103 93.789436 -0.914376 -5.687505 -46.153026 -0.396741 9.552193 7.577800 -1.198783 2.208615 1.035253 -0.834414 0.000000 0.000000 0.000000 2.222026 1.030867 -0.814188 0.077828 13.290477 4.114900 8.569947 20.386132 -4.382673 0.000001 0.000000 0.000000 1.119850 3.753401 -8.805219 0.000000 0.000000 0.000000 -52.554809 5.073441 -52.013093 0.000189 -106.767557 0.000195 2.477029 -8.092268 -15.589506 -6.141215 -11.690805 -6.761684 9.914127 42.595525 3.409873 -0.422810 8.108085 27.509096 0.000001 -0.000002 -0.000000 0.255313 3.378217 -45.814327 5.654098 5.847751 -88.067448 2.162133 4.544818 -50.866359 0.000000 0.000002 -0.000000 -0.461474 3.841596 -39.722679 6.450755 5.820349 -95.892871 2.182892 4.561562 -51.127719 0.000001 0.000001 0.000002 0.469717 4.966825 -39.799447 8.181036 5.368623 -113.502984 3.200492 5.218134 -63.022968 0.000001 -0.000000 -0.000002 -3.762423 9.063702 -45.253825 5.342533 5.829016 -85.005331 8.716847 5.103328 -119.369167 0.000001 -0.000000 -0.000001 3.012410 13.754816 -5.753862 0.000000 0.000000 0.000000 -47.992341 26.566325 81.688892 -0.000046 106.756253 0.000058 -9.402038 17.062733 7.024394 -7.341085 13.749669 7.412326 9.855745 -44.489113 -3.903275 -0.115770 -14.513078 -28.973857 0.000000 -0.000002 -0.000000 -0.124374 -2.384785 45.108874 4.500598 -4.654536 88.071171 1.723227 -3.618380 50.920109 0.000001 -0.000000 -0.000001 -0.761620 -2.932909 39.031075 5.133891 -4.632752 95.881649 1.739742 -3.631708 51.181360 -0.000002 -0.000000 0.000000 0.154759 -4.068818 39.122668 6.509723 -4.273602 113.462884 2.549587 -4.153921 63.067337 -0.000001 0.000001 0.000001 -4.198875 -8.025514 44.637786 4.252908 -4.639629 85.014805 6.935973 -4.062632 119.322285 -0.000000 -0.000000 0.000000 -36.617051 5.465336 18.327132 59.777877 -5.831459 4.526415 -16.787678 -7.938885 -16.004284 -4.532881 -0.001375 0.063804 -0.000000 0.000003 -0.000000 -27.181332 -8.565856 -29.995298 58.265687 -7.168594 -7.910962 -22.478002 -6.235555 23.171115 -0.090340 0.000037 0.000001 0.000000 0.000001 0.000000 
-0.021835 93.533569 -1.051167 -5.877478 -46.464944 -0.573189 9.609948 7.592033 -1.025667 2.222426 1.037151 -0.807830 0.000000 0.000000 0.000000 2.235497 1.033576 -0.787906 0.080272 13.306643 4.005495 8.469499 20.449931 -4.482505 -0.000000 0.000000 0.000000 1.125280 3.798841 -8.856254 0.000000 0.000000 0.000000 -52.285887 5.109670 -52.166058 -0.000065 -106.824985 -0.000069 2.659690 -8.255201 -15.592702 -6.141215 -11.690803 -6.761685 9.914129 42.595525 3.409867 -0.422808 8.108089 27.509087 0.000002 0.000003 -0.000002 0.255313 3.378219 -45.814320 5.654098 5.847751 -88.067448 2.162129 4.544816 -50.866352 -0.000000 0.000002 -0.000001 -0.461472 3.841597 -39.722676 6.450752 5.820350 -95.892871 2.182889 4.561561 -51.127716 0.000001 0.000001 -0.000002 0.469717 4.966824 -39.799441 8.181036 5.368622 -113.502984 3.200490 5.218134 -63.022968 0.000001 -0.000000 0.000001 -3.762422 9.063703 -45.253825 5.342533 5.829010 -85.005331 8.716848 5.103329 -119.369167 -0.000001 -0.000001 -0.000002 2.994921 13.960744 -5.866394 0.000000 0.000000 0.000000 -47.791052 26.394180 81.130927 0.000098 107.059547 -0.000091 -9.500626 16.942737 6.216942 -7.341085 13.749671 7.412328 9.855744 -44.489113 -3.903277 -0.115771 -14.513086 -28.973857 0.000000 -0.000001 0.000000 -0.124371 -2.384784 45.108881 4.500598 -4.654538 88.071171 1.723230 -3.618376 50.920109 -0.000001 0.000001 0.000001 -0.761619 -2.932907 39.031078 5.133887 -4.632756 95.881649 1.739742 -3.631704 51.181360 0.000001 0.000001 0.000001 0.154760 -4.068813 39.122661 6.509727 -4.273602 113.462884 2.549588 -4.153920 63.067337 -0.000002 0.000001 -0.000001 -4.198873 -8.025512 44.637789 4.252907 -4.639628 85.014805 6.935973 -4.062634 119.322285 -0.000001 -0.000000 -0.000000 -37.155232 5.065025 18.470078 60.704153 -5.754118 4.517444 -15.655060 -7.878375 -16.242214 -5.650893 -0.009090 0.293393 0.000000 0.000000 -0.000000 -27.650037 -8.599107 -29.955376 58.719560 -6.698420 -8.156076 -22.647685 -6.218144 23.078246 -0.146113 0.000030 -0.000005 0.000000 0.000001 0.000001 
